Coordinates
version=1
nRows=8
nColumns=63
inDegrees=yes

Units are S.I. units (second, meters, Newtons, ...)
If the header above contains a line with 'inDegrees', this indicates whether rotational values are in degrees (yes) or radians (no).

endheader
time	pelvis_tilt	pelvis_list	pelvis_rotation	pelvis_tx	pelvis_ty	pelvis_tz	hip_flexion_r	hip_adduction_r	hip_rotation_r	knee_angle_r	knee_angle_r_beta	ankle_angle_r	subtalar_angle_r	mtp_angle_r	hip_flexion_l	hip_adduction_l	hip_rotation_l	knee_angle_l	knee_angle_l_beta	ankle_angle_l	subtalar_angle_l	mtp_angle_l	L5_S1_Flex_Ext	L5_S1_Lat_Bending	L5_S1_axial_rotation	L4_L5_Flex_Ext	L4_L5_Lat_Bending	L4_L5_axial_rotation	L3_L4_Flex_Ext	L3_L4_Lat_Bending	L3_L4_axial_rotation	L2_L3_Flex_Ext	L2_L3_Lat_Bending	L2_L3_axial_rotation	L1_L2_Flex_Ext	L1_L2_Lat_Bending	L1_L2_axial_rotation	L1_T12_Flex_Ext	L1_T12_Lat_Bending	L1_T12_axial_rotation	Abs_r3	Abs_r2	Abs_r1	Abs_t1	Abs_t2	neck_flexion	neck_bending	neck_rotation	arm_flex_r	arm_add_r	arm_rot_r	elbow_flex_r	pro_sup_r	wrist_flex_r	wrist_dev_r	arm_flex_l	arm_add_l	arm_rot_l	elbow_flex_l	pro_sup_l	wrist_flex_l	wrist_dev_l
6.658537	3.324759	-4.241451	112.883686	0.245419	0.434094	0.889417	0.633439	3.374553	-9.811613	3.389279	0.059154	31.718841	-6.648396	0.000000	4.503633	-1.481968	24.281526	2.441881	0.042619	30.853799	-4.088517	0.000000	-0.046053	-0.045844	-2.026313	-0.085525	-0.060972	-2.152957	-0.075661	-0.111465	-2.152957	-0.052634	-0.111465	-1.773024	-0.042765	-0.093485	-1.646379	-0.026315	-0.071012	-1.519735	-0.328953	-0.518594	-11.269744	0.000000	0.000000	23.164617	0.242535	11.902438	14.647351	-11.112731	144.935170	13.574331	12.911930	13.415813	-9.638783	9.287755	-13.300247	136.835379	9.496947	4.177910	-8.176591	-16.154461
6.682927	3.298455	-3.879209	113.591078	0.245274	0.434625	0.886818	-0.207545	3.712029	-9.277122	2.664115	0.046498	31.339149	-7.970567	0.000000	3.945518	-1.680723	25.109340	2.143784	0.037416	30.796022	-4.318597	0.000000	-0.038224	-0.106713	-2.192843	-0.070986	-0.141928	-2.329895	-0.062799	-0.259462	-2.329895	-0.043687	-0.259462	-1.918737	-0.035495	-0.217609	-1.781685	-0.021841	-0.165298	-1.644632	-0.273032	-1.207158	-12.195932	0.000000	0.000000	23.107755	0.570393	12.095021	14.879546	-10.675734	145.953841	14.080552	15.128082	12.629711	-9.909346	8.735747	-13.763091	137.205929	9.411062	4.174770	-8.407243	-15.933268
6.707317	3.250802	-3.518890	114.223328	0.245067	0.435188	0.884273	-1.020075	4.027059	-8.694990	1.990374	0.034739	30.998909	-9.265337	0.000000	3.395026	-1.856606	25.806674	1.882544	0.032857	30.757372	-4.487127	0.000000	-0.031865	-0.163297	-2.337427	-0.059177	-0.217184	-2.483516	-0.052351	-0.397039	-2.483516	-0.036419	-0.397039	-2.045249	-0.029590	-0.332994	-1.899160	-0.018208	-0.252946	-1.753070	-0.227609	-1.847243	-13.000069	0.000000	0.000000	22.979930	1.076628	12.581132	15.086639	-10.381015	146.078338	14.741995	17.762313	11.693932	-10.017028	8.219651	-14.186944	137.404321	9.352865	4.206360	-8.581878	-15.754920
6.731707	3.188573	-3.169018	114.761072	0.244794	0.435769	0.881828	-1.781620	4.316886	-7.973944	1.390258	0.024265	30.669489	-10.647891	0.000000	2.863267	-2.008853	26.426796	1.662507	0.029016	30.729067	-4.694975	0.000000	-0.026246	-0.213350	-2.456788	-0.048742	-0.283755	-2.610337	-0.043120	-0.518739	-2.610337	-0.029997	-0.518739	-2.149689	-0.024372	-0.435063	-1.996140	-0.014997	-0.330479	-1.842591	-0.187473	-2.413455	-13.663915	0.000000	0.000000	22.771179	1.711740	13.350149	15.247288	-10.240318	145.238981	15.545811	20.738188	10.632517	-9.913259	7.753313	-14.561446	137.380944	9.338794	4.291225	-8.690646	-15.611186
6.756098	3.109141	-2.847069	115.212163	0.244398	0.436346	0.879603	-2.444808	4.526183	-7.611749	0.939473	0.016397	30.499753	-11.476076	0.000000	2.396427	-2.118883	26.824110	1.534722	0.026786	30.773012	-4.725749	0.000000	-0.021471	-0.255985	-2.550172	-0.039874	-0.340461	-2.709558	-0.035274	-0.622403	-2.709558	-0.024539	-0.622403	-2.231401	-0.019938	-0.522005	-2.072015	-0.012268	-0.396521	-1.912629	-0.153364	-2.895758	-14.183294	0.000000	0.000000	22.512693	2.387652	14.296068	15.372301	-10.248073	143.661890	16.420761	23.883068	9.568601	-9.678191	7.366271	-14.867809	137.253508	9.355832	4.349803	-8.709112	-15.518070
6.780488	3.037271	-2.557095	115.572358	0.243903	0.436887	0.877592	-3.011658	4.694322	-7.334153	0.602674	0.010519	30.399071	-12.101531	0.000000	1.998475	-2.207557	27.043273	1.474264	0.025731	30.882550	-4.628417	0.000000	-0.016701	-0.287767	-2.621191	-0.031015	-0.382731	-2.785016	-0.027438	-0.699677	-2.785016	-0.019087	-0.699677	-2.293542	-0.015508	-0.586815	-2.129718	-0.009543	-0.445752	-1.965893	-0.119293	-3.255281	-14.578279	0.000000	0.000000	22.227299	3.129710	15.428021	15.454724	-10.409838	141.243433	17.371546	27.349283	8.474917	-9.268727	7.053564	-15.106136	136.916234	9.425567	4.347669	-8.598719	-15.464822
6.804878	2.946000	-2.298793	115.870822	0.243314	0.437408	0.875808	-3.498899	4.799799	-7.204707	0.381400	0.006657	30.378722	-12.502037	0.000000	1.663390	-2.248074	27.113957	1.487552	0.025963	31.055616	-4.397792	0.000000	-0.014555	-0.312425	-2.672741	-0.027031	-0.415526	-2.839788	-0.023913	-0.759631	-2.839788	-0.016635	-0.759631	-2.338649	-0.013516	-0.637098	-2.171602	-0.008317	-0.483947	-2.004556	-0.103968	-3.534218	-14.864985	0.000000	0.000000	21.907857	3.833175	16.544278	15.473763	-10.684491	138.093392	18.324795	31.137179	7.389293	-8.758471	6.819130	-15.278581	136.524777	9.500937	4.372621	-8.457603	-15.460327
6.829268	2.825153	-2.084335	116.094427	0.242711	0.437896	0.874219	-3.902816	4.830821	-7.219140	0.276971	0.004834	30.433950	-12.658682	0.000000	1.393316	-2.238429	26.773582	1.562743	0.027275	31.346509	-3.664843	0.000000	-0.014808	-0.332010	-2.709911	-0.027499	-0.441573	-2.879280	-0.024328	-0.807248	-2.879280	-0.016924	-0.807248	-2.371172	-0.013750	-0.677034	-2.201802	-0.008461	-0.514283	-2.032433	-0.105770	-3.755760	-15.071709	0.000000	0.000000	21.554650	4.506197	17.648579	15.479208	-10.850378	136.169885	18.927674	34.058895	6.520703	-8.526342	6.651772	-15.454762	135.510022	9.692926	4.563308	-8.133024	-15.517332
